<mxfile host="app.diagrams.net" modified="2023-11-05T07:35:25.722Z" agent="Mozilla/5.0 (Windows NT 10.0; Win64; x64) AppleWebKit/537.36 (KHTML, like Gecko) Chrome/118.0.0.0 Safari/537.36" etag="PE59vZ3p_gpL45HL-rLP" version="22.0.8" type="github">
  <diagram name="Page-1" id="KYtYGMZQCDjqY32NAYXS">
    <mxGraphModel dx="811" dy="1134" grid="1" gridSize="10" guides="1" tooltips="1" connect="1" arrows="1" fold="1" page="1" pageScale="1" pageWidth="850" pageHeight="1100" math="0" shadow="0">
      <root>
        <mxCell id="0" />
        <mxCell id="1" parent="0" />
        <mxCell id="iZQITO0qIyvCdsTMZrwx-2" style="edgeStyle=orthogonalEdgeStyle;rounded=0;orthogonalLoop=1;jettySize=auto;html=1;" parent="1" edge="1">
          <mxGeometry relative="1" as="geometry">
            <mxPoint x="560" y="255" as="targetPoint" />
            <mxPoint x="410" y="255" as="sourcePoint" />
          </mxGeometry>
        </mxCell>
        <mxCell id="hOFo9Gx7WKhc9JZeYpQf-1" value="" style="image;aspect=fixed;perimeter=ellipsePerimeter;html=1;align=center;shadow=0;dashed=0;spacingTop=3;image=img/lib/active_directory/database_server.svg;" parent="1" vertex="1">
          <mxGeometry x="170" y="230" width="41" height="50" as="geometry" />
        </mxCell>
        <mxCell id="iZQITO0qIyvCdsTMZrwx-17" value="" style="edgeStyle=orthogonalEdgeStyle;rounded=0;orthogonalLoop=1;jettySize=auto;html=1;" parent="1" source="iZQITO0qIyvCdsTMZrwx-11" target="iZQITO0qIyvCdsTMZrwx-16" edge="1">
          <mxGeometry relative="1" as="geometry" />
        </mxCell>
        <mxCell id="hOFo9Gx7WKhc9JZeYpQf-2" value="" style="image;aspect=fixed;perimeter=ellipsePerimeter;html=1;align=center;shadow=0;dashed=0;spacingTop=3;image=img/lib/active_directory/database_server.svg;" parent="1" vertex="1">
          <mxGeometry x="560.5" y="230" width="41" height="50" as="geometry" />
        </mxCell>
        <mxCell id="hOFo9Gx7WKhc9JZeYpQf-10" value="vCenter&lt;br&gt;&amp;nbsp;Server&amp;nbsp;" style="rounded=1;whiteSpace=wrap;html=1;" parent="1" vertex="1">
          <mxGeometry x="590" y="490" width="60" height="30" as="geometry" />
        </mxCell>
        <mxCell id="hOFo9Gx7WKhc9JZeYpQf-11" value="ESXi 6.7&lt;br&gt;Hypervisor" style="rounded=1;whiteSpace=wrap;html=1;" parent="1" vertex="1">
          <mxGeometry x="200" y="220" width="69" height="35" as="geometry" />
        </mxCell>
        <mxCell id="hOFo9Gx7WKhc9JZeYpQf-12" value="Windows Server" style="rounded=1;whiteSpace=wrap;html=1;" parent="1" vertex="1">
          <mxGeometry x="490" y="225" width="58.5" height="30" as="geometry" />
        </mxCell>
        <mxCell id="iZQITO0qIyvCdsTMZrwx-4" value="" style="edgeStyle=orthogonalEdgeStyle;rounded=0;orthogonalLoop=1;jettySize=auto;html=1;entryX=0;entryY=0;entryDx=0;entryDy=25;entryPerimeter=0;" parent="1" source="hOFo9Gx7WKhc9JZeYpQf-1" target="iZQITO0qIyvCdsTMZrwx-12" edge="1">
          <mxGeometry relative="1" as="geometry">
            <mxPoint x="290" y="255" as="targetPoint" />
            <mxPoint x="242" y="255" as="sourcePoint" />
          </mxGeometry>
        </mxCell>
        <mxCell id="iZQITO0qIyvCdsTMZrwx-12" value="&lt;span style=&quot;color: rgb(0, 0, 0); font-family: Helvetica; font-size: 12px; font-style: normal; font-variant-ligatures: normal; font-variant-caps: normal; font-weight: 400; letter-spacing: normal; orphans: 2; text-align: center; text-indent: 0px; text-transform: none; widows: 2; word-spacing: 0px; -webkit-text-stroke-width: 0px; background-color: rgb(251, 251, 251); text-decoration-thickness: initial; text-decoration-style: initial; text-decoration-color: initial; float: none; display: inline !important;&quot;&gt;ESXi Host has a Windows server Vm&lt;/span&gt;" style="shape=callout;whiteSpace=wrap;html=1;perimeter=calloutPerimeter;" parent="1" vertex="1">
          <mxGeometry x="320" y="230" width="120" height="80" as="geometry" />
        </mxCell>
        <mxCell id="SlM0R3AL9Go1tbHT3jfl-5" style="edgeStyle=orthogonalEdgeStyle;rounded=0;orthogonalLoop=1;jettySize=auto;html=1;entryX=1;entryY=0.5;entryDx=0;entryDy=0;" parent="1" source="iZQITO0qIyvCdsTMZrwx-16" target="IutInKjExAIv3MQaEcRm-2" edge="1">
          <mxGeometry relative="1" as="geometry" />
        </mxCell>
        <mxCell id="iZQITO0qIyvCdsTMZrwx-16" value="" style="image;aspect=fixed;perimeter=ellipsePerimeter;html=1;align=center;shadow=0;dashed=0;spacingTop=3;image=img/lib/active_directory/database_server.svg;" parent="1" vertex="1">
          <mxGeometry x="560.5" y="490" width="41" height="50" as="geometry" />
        </mxCell>
        <mxCell id="iZQITO0qIyvCdsTMZrwx-18" value="" style="edgeStyle=orthogonalEdgeStyle;rounded=0;orthogonalLoop=1;jettySize=auto;html=1;" parent="1" source="hOFo9Gx7WKhc9JZeYpQf-2" target="iZQITO0qIyvCdsTMZrwx-11" edge="1">
          <mxGeometry relative="1" as="geometry">
            <mxPoint x="462" y="280" as="sourcePoint" />
            <mxPoint x="462" y="480" as="targetPoint" />
          </mxGeometry>
        </mxCell>
        <mxCell id="iZQITO0qIyvCdsTMZrwx-11" value="On Windows Server, the vCenter Server is&amp;nbsp;configured" style="shape=callout;whiteSpace=wrap;html=1;perimeter=calloutPerimeter;" parent="1" vertex="1">
          <mxGeometry x="521" y="360" width="120" height="80" as="geometry" />
        </mxCell>
        <mxCell id="SlM0R3AL9Go1tbHT3jfl-12" style="edgeStyle=orthogonalEdgeStyle;rounded=0;orthogonalLoop=1;jettySize=auto;html=1;" parent="1" source="IutInKjExAIv3MQaEcRm-2" edge="1">
          <mxGeometry relative="1" as="geometry">
            <mxPoint x="180.0000000000001" y="450" as="targetPoint" />
          </mxGeometry>
        </mxCell>
        <mxCell id="IutInKjExAIv3MQaEcRm-2" value="Connect &lt;br&gt;vCenter to ESXi Host&amp;nbsp;&amp;nbsp;" style="rounded=0;whiteSpace=wrap;html=1;" parent="1" vertex="1">
          <mxGeometry x="315" y="495" width="130" height="40" as="geometry" />
        </mxCell>
        <mxCell id="IutInKjExAIv3MQaEcRm-10" value="Once vCenter is configured&lt;br&gt;|&amp;nbsp;Manage &lt;br&gt;&amp;nbsp; | Provision &lt;br&gt;&amp;nbsp; &amp;nbsp;| Configure &lt;br&gt;Virtual Machines through vCenter" style="rounded=1;whiteSpace=wrap;html=1;" parent="1" vertex="1">
          <mxGeometry x="295" y="340" width="170" height="90" as="geometry" />
        </mxCell>
        <mxCell id="SlM0R3AL9Go1tbHT3jfl-11" style="edgeStyle=orthogonalEdgeStyle;rounded=0;orthogonalLoop=1;jettySize=auto;html=1;" parent="1" source="IutInKjExAIv3MQaEcRm-12" edge="1">
          <mxGeometry relative="1" as="geometry">
            <mxPoint x="180.0000000000001" y="290" as="targetPoint" />
          </mxGeometry>
        </mxCell>
        <mxCell id="IutInKjExAIv3MQaEcRm-12" value="Control ESXi Host from vCenter" style="shape=callout;whiteSpace=wrap;html=1;perimeter=calloutPerimeter;" parent="1" vertex="1">
          <mxGeometry x="120" y="360" width="120" height="80" as="geometry" />
        </mxCell>
      </root>
    </mxGraphModel>
  </diagram>
</mxfile>
